<svg width="70" height="70" viewBox="0 0 70 70" fill="none" xmlns="http://www.w3.org/2000/svg">
<path d="M25.1228 53.9115C21.6228 53.9115 17.0921 52.1615 15.2643 51.2865C11.8837 49.4153 9.02065 46.7338 6.9323 43.4828C4.84394 40.2319 3.59561 36.5132 3.29939 32.6606C3.00316 28.8081 3.66832 24.9422 5.23513 21.4102C6.80194 17.8782 9.22136 14.7906 12.2762 12.4245C15.331 10.0585 18.9256 8.48814 22.7372 7.85442C26.5488 7.2207 30.4581 7.54346 34.1142 8.79374C37.7702 10.044 41.0586 12.1827 43.684 15.0177C46.3094 17.8527 48.1896 21.2953 49.1559 25.0365H52.8309C56.4475 25.0328 59.9363 26.3731 62.6202 28.7971C65.3042 31.2212 66.9916 34.556 67.3551 38.1542C67.7186 41.7524 66.7321 45.3573 64.5871 48.2691C62.4422 51.1809 59.2918 53.1918 55.7476 53.9115C52.3449 54.1059 44.9561 54.4365 42.6228 54.2032" stroke="#ffffff" stroke-width="2" stroke-linecap="round" stroke-linejoin="round"/>
<path d="M44.0811 39.6198L35.3311 30.8698L26.5811 39.6198" stroke="#ffffff" stroke-width="2" stroke-linecap="round" stroke-linejoin="round"/>
<path d="M35.3311 30.8698V62.9531" stroke="#ffffff" stroke-width="2" stroke-linecap="round" stroke-linejoin="round"/>
</svg>
