<svg width="25" height="25" viewBox="0 0 25 25" fill="none" xmlns="http://www.w3.org/2000/svg">
    <path d="M12.5 15.625C14.2259 15.625 15.625 14.2259 15.625 12.5C15.625 10.7741 14.2259 9.375 12.5 9.375C10.7741 9.375 9.375 10.7741 9.375 12.5C9.375 14.2259 10.7741 15.625 12.5 15.625Z" stroke="#ffffff" stroke-width="2" stroke-linecap="round" stroke-linejoin="round"/>
    <path d="M20.2083 15.625C20.0697 15.9392 20.0283 16.2877 20.0896 16.6256C20.1508 16.9635 20.3119 17.2753 20.5521 17.5208L20.6146 17.5833C20.8083 17.7768 20.9619 18.0066 21.0668 18.2595C21.1716 18.5124 21.2256 18.7835 21.2256 19.0573C21.2256 19.3311 21.1716 19.6022 21.0668 19.8551C20.9619 20.108 20.8083 20.3377 20.6146 20.5312C20.4211 20.7249 20.1913 20.8786 19.9384 20.9834C19.6855 21.0883 19.4144 21.1422 19.1406 21.1422C18.8668 21.1422 18.5957 21.0883 18.3428 20.9834C18.0899 20.8786 17.8601 20.7249 17.6667 20.5312L17.6042 20.4687C17.3587 20.2286 17.0468 20.0675 16.7089 20.0062C16.371 19.945 16.0225 19.9863 15.7083 20.125C15.4002 20.257 15.1375 20.4763 14.9524 20.7558C14.7673 21.0352 14.668 21.3627 14.6667 21.6979V21.875C14.6667 22.4275 14.4472 22.9574 14.0565 23.3481C13.6658 23.7388 13.1359 23.9583 12.5833 23.9583C12.0308 23.9583 11.5009 23.7388 11.1102 23.3481C10.7195 22.9574 10.5 22.4275 10.5 21.875V21.7812C10.4919 21.4364 10.3803 21.1021 10.1797 20.8215C9.97905 20.541 9.69867 20.3274 9.37499 20.2083C9.06081 20.0697 8.71229 20.0283 8.37438 20.0896C8.03646 20.1508 7.72465 20.3119 7.47916 20.5521L7.41666 20.6146C7.22317 20.8083 6.9934 20.9619 6.74049 21.0668C6.48758 21.1716 6.21648 21.2256 5.9427 21.2256C5.66892 21.2256 5.39782 21.1716 5.14491 21.0668C4.89199 20.9619 4.66222 20.8083 4.46874 20.6146C4.27504 20.4211 4.12137 20.1913 4.01653 19.9384C3.91169 19.6855 3.85773 19.4144 3.85773 19.1406C3.85773 18.8668 3.91169 18.5957 4.01653 18.3428C4.12137 18.0899 4.27504 17.8601 4.46874 17.6667L4.53124 17.6042C4.77138 17.3587 4.93247 17.0468 4.99374 16.7089C5.05501 16.371 5.01365 16.0225 4.87499 15.7083C4.74294 15.4002 4.52369 15.1375 4.24422 14.9524C3.96476 14.7673 3.63727 14.668 3.30207 14.6667H3.12499C2.57246 14.6667 2.04255 14.4472 1.65185 14.0565C1.26115 13.6658 1.04166 13.1359 1.04166 12.5833C1.04166 12.0308 1.26115 11.5009 1.65185 11.1102C2.04255 10.7195 2.57246 10.5 3.12499 10.5H3.21874C3.56353 10.4919 3.89791 10.3803 4.17843 10.1797C4.45894 9.97905 4.67261 9.69867 4.79166 9.37499C4.93032 9.0608 4.97168 8.71229 4.91041 8.37437C4.84914 8.03646 4.68805 7.72465 4.44791 7.47915L4.38541 7.41665C4.19171 7.22317 4.03804 6.9934 3.9332 6.74049C3.82836 6.48758 3.77439 6.21648 3.77439 5.9427C3.77439 5.66891 3.82836 5.39782 3.9332 5.1449C4.03804 4.89199 4.19171 4.66222 4.38541 4.46874C4.57889 4.27504 4.80866 4.12137 5.06157 4.01653C5.31448 3.91169 5.58558 3.85773 5.85936 3.85773C6.13315 3.85773 6.40424 3.91169 6.65716 4.01653C6.91007 4.12137 7.13984 4.27504 7.33332 4.46874L7.39582 4.53124C7.64132 4.77138 7.95313 4.93247 8.29104 4.99374C8.62895 5.05501 8.97747 5.01365 9.29166 4.87499H9.37499C9.68308 4.74294 9.94584 4.52369 10.1309 4.24422C10.316 3.96475 10.4153 3.63727 10.4167 3.30207V3.12499C10.4167 2.57246 10.6361 2.04255 11.0268 1.65185C11.4176 1.26115 11.9475 1.04166 12.5 1.04166C13.0525 1.04166 13.5824 1.26115 13.9731 1.65185C14.3638 2.04255 14.5833 2.57246 14.5833 3.12499V3.21874C14.5847 3.55393 14.684 3.88142 14.8691 4.16089C15.0541 4.44036 15.3169 4.65961 15.625 4.79166C15.9392 4.93032 16.2877 4.97168 16.6256 4.91041C16.9635 4.84914 17.2753 4.68805 17.5208 4.44791L17.5833 4.38541C17.7768 4.1917 18.0066 4.03804 18.2595 3.9332C18.5124 3.82836 18.7835 3.77439 19.0573 3.77439C19.3311 3.77439 19.6022 3.82836 19.8551 3.9332C20.108 4.03804 20.3378 4.1917 20.5312 4.38541C20.7249 4.57889 20.8786 4.80866 20.9834 5.06157C21.0883 5.31448 21.1423 5.58558 21.1423 5.85936C21.1423 6.13315 21.0883 6.40424 20.9834 6.65716C20.8786 6.91007 20.7249 7.13984 20.5312 7.33332L20.4687 7.39582C20.2286 7.64132 20.0675 7.95313 20.0062 8.29104C19.945 8.62895 19.9863 8.97747 20.125 9.29165V9.37499C20.257 9.68308 20.4763 9.94584 20.7558 10.1309C21.0352 10.316 21.3627 10.4153 21.6979 10.4167H21.875C22.4275 10.4167 22.9574 10.6361 23.3481 11.0268C23.7388 11.4175 23.9583 11.9475 23.9583 12.5C23.9583 13.0525 23.7388 13.5824 23.3481 13.9731C22.9574 14.3638 22.4275 14.5833 21.875 14.5833H21.7812C21.446 14.5847 21.1186 14.684 20.8391 14.8691C20.5596 15.0541 20.3404 15.3169 20.2083 15.625V15.625Z" stroke="#ffffff" stroke-width="2" stroke-linecap="round" stroke-linejoin="round"/>
</svg>
