<svg width="128" height="128" viewBox="0 0 128 128" fill="none" xmlns="http://www.w3.org/2000/svg">
<circle cx="64" cy="64" r="64" fill="white"/>
<path d="M56.5865 74.1028C58.24 68.5281 59.8067 62.9253 61.2868 57.2943C61.627 55.9998 63.4896 55.9828 63.8559 57.2702C65.4506 62.8749 67.1604 68.4498 68.9852 73.9947C71.0375 80.2308 73.1265 86.5031 75.2523 92.8115C75.7911 94.4104 77.2989 95.4811 78.988 95.4664L90.1083 95.3695C91.6732 95.3559 93.082 94.4126 93.6642 92.9618C95.0612 89.4809 96.547 85.501 98.1217 81.0223C100.164 75.4839 102.201 69.4696 104.235 62.9795C104.909 60.8948 105.582 58.7768 106.255 56.6253C107.154 53.7513 106.585 50.5867 104.511 48.4015C100.989 44.6909 96.9786 41.4486 92.5843 38.7763C91.8353 38.3208 90.8713 38.7489 90.6791 39.6034C90.3551 41.0435 90.0201 42.5007 89.674 43.9747C88.7614 48.2659 87.7541 52.6055 86.6523 56.9935C85.9421 59.7582 85.2314 62.4636 84.5202 65.1099C84.1819 66.3689 82.4222 66.3908 82.0564 65.1395C81.2391 62.3432 80.4421 59.5054 79.6653 56.626C78.487 52.2579 77.3569 47.9845 76.2753 43.8059L73.7627 34.3925C73.3738 32.9356 72.1796 31.8307 70.7031 31.5159L70.5211 31.4771C67.9225 30.9228 65.3441 30.3728 62.0927 30.4009C59.3992 30.4243 57.251 30.926 55.0988 31.4036C53.6016 31.7359 52.3841 32.8594 51.9993 34.3422L49.4826 44.0394C48.4741 48.2363 47.3714 52.5291 46.1746 56.9179C45.4483 59.8104 44.7009 62.6617 43.9326 65.4718C43.5888 66.7293 41.829 66.738 41.4687 65.4851C40.7113 62.8517 39.9535 60.159 39.1951 57.4071C38.1118 53.0381 37.0288 48.7168 35.9463 44.443C35.5544 42.7465 35.1627 41.0725 34.7711 39.4211C34.5719 38.5806 33.622 38.1657 32.8808 38.6108C28.4445 41.2752 24.3975 44.5177 20.8433 48.233C18.7155 50.4572 18.163 53.7022 19.1187 56.6266C19.9029 59.0264 20.6748 61.3845 21.4345 63.7012C23.6763 70.154 25.8189 76.1318 27.8623 81.6346C28.1629 82.444 30.9856 89.2449 32.5384 92.9796C33.1501 94.4507 34.5955 95.4009 36.1903 95.3827L47.3864 95.2545C49.0838 95.2351 50.5729 94.1286 51.0708 92.5078C52.4381 88.0562 55.1446 79.1912 56.5865 74.1028Z" fill="#64A1BD"/>
</svg>
